# xmcd
#
# Track frame offsets: 
#        150
#        18419
#        41451
#        54952
#        79657
#        104465
#        123741
#        140514
#        156839
#        173151
#        192009
#
# Disc length: 2874 seconds
#
# Revision: 1
# Processed by: cddbd v1.5.2PL0 Copyright (c) Steve Scherf et al.
# Submitted via: ExactAudioCopy v0.99pb5
#
DISCID=8a0b380b
DTITLE=Various Artist - Cuba: From Havana to Santiago
DYEAR=2006
DGENRE=Salsa
TTITLE0=El Son Entero - Perdón
TTITLE1=El Son Entero - La Cazuela
TTITLE2=Yakare - Bonito Y Sabroso
TTITLE3=Union San Luisera - Lo Mío Es Mío
TTITLE4=Quinteto De La Trova - Irma
TTITLE5=El Son Entero - Naranja China
TTITLE6=Union San Luisera - Me Tienen Bien Amarrao
TTITLE7=Yakare - Mulato Con Cola
TTITLE8=El Son Entero - Amorosa Guajira
TTITLE9=Yakare - Mami Me Gustó
TTITLE10=Quineteo De La Trova - Santiago De Cuba
EXTD=
EXTT0=
EXTT1=
EXTT2=
EXTT3=
EXTT4=
EXTT5=
EXTT6=
EXTT7=
EXTT8=
EXTT9=
EXTT10=
PLAYORDER=
